<svg width="960" height="640" viewBox="0 0 960 640" fill="none" xmlns="http://www.w3.org/2000/svg" role="img" aria-labelledby="tctitle tcdesc">
  <title id="tctitle">Trust Contract product preview</title>
  <desc id="tcdesc">A Discord jobs forum showing an anonymized job post authored by the Trust Contract bot — a Gold job with budget, timeline, tags, a reference code, and an Apply action.</desc>
  <defs>
    <linearGradient id="tcInk" x1="124" y1="65" x2="836" y2="589" gradientUnits="userSpaceOnUse">
      <stop stop-color="#221c2c"/>
      <stop offset="0.55" stop-color="#1a1620"/>
      <stop offset="1" stop-color="#141019"/>
    </linearGradient>
    <linearGradient id="tcGold" x1="0" y1="0" x2="1" y2="1">
      <stop stop-color="#f0d493"/>
      <stop offset="0.46" stop-color="#cd9f49"/>
      <stop offset="1" stop-color="#9a7026"/>
    </linearGradient>
    <clipPath id="tcWin"><rect x="100" y="72" width="760" height="500" rx="28"/></clipPath>
    <filter id="tcShadow" x="53" y="24" width="854" height="592" filterUnits="userSpaceOnUse" color-interpolation-filters="sRGB">
      <feFlood flood-opacity="0" result="bg"/>
      <feColorMatrix in="SourceAlpha" type="matrix" values="0 0 0 0 0 0 0 0 0 0 0 0 0 0 0 0 0 0 127 0" result="hardAlpha"/>
      <feOffset dy="24"/>
      <feGaussianBlur stdDeviation="28"/>
      <feComposite in2="hardAlpha" operator="out"/>
      <feColorMatrix type="matrix" values="0 0 0 0 0.08 0 0 0 0 0.05 0 0 0 0 0.02 0 0 0 0.32 0"/>
      <feBlend mode="normal" in2="bg" result="e1"/>
      <feBlend mode="normal" in="SourceGraphic" in2="e1"/>
    </filter>
  </defs>

  <rect width="960" height="640" rx="42" fill="#f5f1e8"/>

  <!-- faint gold accent flows -->
  <path d="M150 170C260 70 410 64 520 150C630 236 740 228 832 132" stroke="url(#tcGold)" stroke-width="16" stroke-linecap="round" opacity="0.26"/>
  <path d="M132 506C286 392 354 256 326 126" stroke="#b27a45" stroke-width="16" stroke-linecap="round" opacity="0.2"/>
  <path d="M806 506C700 414 612 424 492 520" stroke="#d6a93f" stroke-width="16" stroke-linecap="round" opacity="0.22"/>

  <g filter="url(#tcShadow)">
    <rect x="100" y="72" width="760" height="500" rx="28" fill="url(#tcInk)"/>
  </g>

  <g clip-path="url(#tcWin)">
    <!-- titlebar -->
    <rect x="100" y="72" width="760" height="46" fill="#100e15"/>
    <circle cx="128" cy="95" r="6" fill="#ff5f57"/>
    <circle cx="148" cy="95" r="6" fill="#febc2e"/>
    <circle cx="168" cy="95" r="6" fill="#28c840"/>
    <text x="196" y="100" fill="#9aa0a8" font-family="Inter, Arial, sans-serif" font-size="13" font-weight="600"># jobs · public forum</text>

    <!-- bot author -->
    <circle cx="152" cy="164" r="21" fill="#241f2e" stroke="#97712a" stroke-width="1.5"/>
    <rect x="143" y="160" width="18" height="12" rx="2.5" fill="none" stroke="#e3c074" stroke-width="1.6"/>
    <path d="M152 160v-3" stroke="#e3c074" stroke-width="1.6" stroke-linecap="round"/>
    <circle cx="152" cy="155.5" r="1.5" fill="#e3c074"/>
    <circle cx="148" cy="165.5" r="1.3" fill="#e3c074"/>
    <circle cx="156" cy="165.5" r="1.3" fill="#e3c074"/>

    <text x="184" y="152" fill="#f3e7c8" font-family="Inter, Arial, sans-serif" font-size="15" font-weight="700">Trust Contract</text>
    <rect x="312" y="140" width="46" height="16" rx="4" fill="#e3c074"/>
    <text x="319" y="152" fill="#20180a" font-family="Inter, Arial, sans-serif" font-size="9.5" font-weight="800">✓ BOT</text>
    <text x="368" y="152" fill="#8b9097" font-family="Inter, Arial, sans-serif" font-size="11" font-weight="500">Today at 14:08</text>

    <!-- embed -->
    <rect x="182" y="166" width="600" height="300" rx="7" fill="#2b2d31"/>
    <rect x="182" y="166" width="5" height="300" fill="url(#tcGold)"/>

    <!-- embed head -->
    <rect x="206" y="182" width="96" height="22" rx="11" fill="url(#tcGold)"/>
    <rect x="217" y="189" width="8" height="8" rx="2" transform="rotate(45 221 193)" fill="#4a3208"/>
    <text x="232" y="197" fill="#4a3208" font-family="Inter, Arial, sans-serif" font-size="10" font-weight="800" letter-spacing="0.5">GOLD JOB</text>
    <text x="316" y="199" fill="#f6efdd" font-family="Inter, Arial, sans-serif" font-size="16" font-weight="700">Senior Discord Bot Engineer</text>

    <!-- desc -->
    <text x="206" y="230" fill="#cdd1d6" font-family="Inter, Arial, sans-serif" font-size="12.5">Build a moderation + onboarding bot with payments, role automation,</text>
    <text x="206" y="249" fill="#cdd1d6" font-family="Inter, Arial, sans-serif" font-size="12.5">and a private ticketing flow. TypeScript, production-grade.</text>

    <!-- fields -->
    <text x="206" y="282" fill="#8b9097" font-family="Inter, Arial, sans-serif" font-size="10" font-weight="700" letter-spacing="0.6">BUDGET</text>
    <text x="206" y="300" fill="#e7e9ec" font-family="Inter, Arial, sans-serif" font-size="13" font-weight="700">$4,000 – $6,000 · Fixed</text>
    <text x="470" y="282" fill="#8b9097" font-family="Inter, Arial, sans-serif" font-size="10" font-weight="700" letter-spacing="0.6">TIMELINE</text>
    <text x="470" y="300" fill="#e7e9ec" font-family="Inter, Arial, sans-serif" font-size="13" font-weight="700">3 – 4 weeks</text>

    <!-- tags -->
    <rect x="206" y="318" width="106" height="22" rx="11" fill="rgba(255,255,255,0.07)"/>
    <text x="222" y="333" fill="#dbdee1" font-family="Inter, Arial, sans-serif" font-size="11" font-weight="600">AI/Automation</text>
    <rect x="320" y="318" width="146" height="22" rx="11" fill="rgba(255,255,255,0.07)"/>
    <text x="336" y="333" fill="#dbdee1" font-family="Inter, Arial, sans-serif" font-size="11" font-weight="600">Discord/Community</text>
    <rect x="474" y="318" width="86" height="22" rx="11" fill="rgba(255,255,255,0.07)"/>
    <text x="490" y="333" fill="#dbdee1" font-family="Inter, Arial, sans-serif" font-size="11" font-weight="600">New Build</text>

    <!-- footer ref -->
    <text x="206" y="366" fill="#e3c074" font-family="'JetBrains Mono', monospace, Arial" font-size="12" font-weight="600">Ref: JOB-0184</text>
    <text x="300" y="366" fill="#8b9097" font-family="Inter, Arial, sans-serif" font-size="11">· Apply privately · Client never shown</text>

    <!-- action buttons -->
    <rect x="206" y="386" width="92" height="32" rx="5" fill="#e3c074"/>
    <path d="M232 396l8-3-3 8-1.5-3.5z" fill="#20180a"/>
    <text x="246" y="406" fill="#20180a" font-family="Inter, Arial, sans-serif" font-size="12.5" font-weight="800">Apply</text>
    <rect x="306" y="386" width="110" height="32" rx="5" fill="#4e5058"/>
    <text x="322" y="406" fill="#ffffff" font-family="Inter, Arial, sans-serif" font-size="12" font-weight="600">Check job fit</text>
    <rect x="424" y="386" width="112" height="32" rx="5" fill="#4e5058"/>
    <text x="440" y="406" fill="#ffffff" font-family="Inter, Arial, sans-serif" font-size="12" font-weight="600">Client signals</text>
  </g>

  <rect x="100.5" y="72.5" width="759" height="499" rx="27.5" stroke="#ffffff" stroke-opacity="0.09"/>
</svg>
