<svg width="960" height="640" viewBox="0 0 960 640" fill="none" xmlns="http://www.w3.org/2000/svg" role="img" aria-labelledby="title desc">
  <title id="title">Lanes product preview</title>
  <desc id="desc">A stylized macOS productivity interface showing the Lanes Quick Switcher, named work contexts, and automation preview.</desc>
  <defs>
    <linearGradient id="bg" x1="124" y1="65" x2="836" y2="589" gradientUnits="userSpaceOnUse">
      <stop stop-color="#101728"/>
      <stop offset="0.48" stop-color="#172034"/>
      <stop offset="1" stop-color="#071014"/>
    </linearGradient>
    <linearGradient id="teal" x1="134" y1="110" x2="826" y2="530" gradientUnits="userSpaceOnUse">
      <stop stop-color="#67E8F9"/>
      <stop offset="1" stop-color="#22D3EE"/>
    </linearGradient>
    <linearGradient id="violet" x1="122" y1="470" x2="446" y2="112" gradientUnits="userSpaceOnUse">
      <stop stop-color="#A78BFA"/>
      <stop offset="1" stop-color="#7C3AED"/>
    </linearGradient>
    <linearGradient id="gold" x1="724" y1="152" x2="340" y2="564" gradientUnits="userSpaceOnUse">
      <stop stop-color="#FDE68A"/>
      <stop offset="1" stop-color="#F59E0B"/>
    </linearGradient>
    <filter id="softShadow" x="53" y="24" width="854" height="592" filterUnits="userSpaceOnUse" color-interpolation-filters="sRGB">
      <feFlood flood-opacity="0" result="BackgroundImageFix"/>
      <feColorMatrix in="SourceAlpha" type="matrix" values="0 0 0 0 0 0 0 0 0 0 0 0 0 0 0 0 0 0 127 0" result="hardAlpha"/>
      <feOffset dy="24"/>
      <feGaussianBlur stdDeviation="28"/>
      <feComposite in2="hardAlpha" operator="out"/>
      <feColorMatrix type="matrix" values="0 0 0 0 0.02 0 0 0 0 0.04 0 0 0 0 0.07 0 0 0 0.35 0"/>
      <feBlend mode="normal" in2="BackgroundImageFix" result="effect1_dropShadow_1_1"/>
      <feBlend mode="normal" in="SourceGraphic" in2="effect1_dropShadow_1_1" result="shape"/>
    </filter>
  </defs>

  <rect width="960" height="640" rx="42" fill="#F4F6FB"/>
  <path d="M162 184C270 74 405 65 514 154C623 243 735 234 826 136" stroke="url(#teal)" stroke-width="18" stroke-linecap="round" opacity="0.34"/>
  <path d="M136 504C290 387 358 249 329 118" stroke="url(#violet)" stroke-width="18" stroke-linecap="round" opacity="0.32"/>
  <path d="M801 500C690 407 608 418 484 520" stroke="url(#gold)" stroke-width="18" stroke-linecap="round" opacity="0.3"/>

  <g filter="url(#softShadow)">
    <rect x="100" y="72" width="760" height="500" rx="28" fill="url(#bg)"/>
    <rect x="100.5" y="72.5" width="759" height="499" rx="27.5" stroke="white" stroke-opacity="0.12"/>

    <g opacity="0.92">
      <rect x="138" y="110" width="684" height="44" rx="16" fill="white" fill-opacity="0.08"/>
      <circle cx="166" cy="132" r="8" fill="#F87171"/>
      <circle cx="190" cy="132" r="8" fill="#FBBF24"/>
      <circle cx="214" cy="132" r="8" fill="#34D399"/>
      <rect x="640" y="121" width="136" height="22" rx="11" fill="#67E8F9" fill-opacity="0.16"/>
      <text x="658" y="136" fill="#CFFAFE" font-family="Inter, Arial, sans-serif" font-size="12" font-weight="700">Lanes: Work</text>
    </g>

    <g>
      <rect x="154" y="186" width="652" height="320" rx="22" fill="#F8FAFC" fill-opacity="0.08"/>
      <rect x="154.5" y="186.5" width="651" height="319" rx="21.5" stroke="white" stroke-opacity="0.12"/>
      <rect x="154" y="186" width="410" height="320" rx="22" fill="white" fill-opacity="0.04"/>
      <line x1="564" y1="186" x2="564" y2="506" stroke="white" stroke-opacity="0.12"/>

      <g>
        <circle cx="193" cy="228" r="12" fill="#67E8F9" fill-opacity="0.18"/>
        <path d="M188 228H198M193 223V233" stroke="#67E8F9" stroke-width="2" stroke-linecap="round"/>
        <text x="218" y="234" fill="#E5F6FF" font-family="Inter, Arial, sans-serif" font-size="24" font-weight="700">Quick Switcher</text>
      </g>

      <rect x="188" y="260" width="336" height="42" rx="12" fill="#020617" fill-opacity="0.34"/>
      <text x="214" y="287" fill="#A7F3D0" font-family="Inter, Arial, sans-serif" font-size="15" font-weight="700">Search lanes...</text>

      <g>
        <rect x="188" y="324" width="336" height="54" rx="14" fill="#22D3EE" fill-opacity="0.14"/>
        <rect x="188.5" y="324.5" width="335" height="53" rx="13.5" stroke="#67E8F9" stroke-opacity="0.44"/>
        <rect x="208" y="340" width="24" height="24" rx="7" fill="#22D3EE"/>
        <text x="250" y="356" fill="#FFFFFF" font-family="Inter, Arial, sans-serif" font-size="16" font-weight="800">Work</text>
        <text x="250" y="370" fill="#BAE6FD" font-family="Inter, Arial, sans-serif" font-size="11" font-weight="600">2h 14m today</text>
        <rect x="468" y="342" width="30" height="20" rx="6" fill="#22D3EE" fill-opacity="0.18"/>
        <text x="478" y="356" fill="#67E8F9" font-family="Inter, Arial, sans-serif" font-size="12" font-weight="800">1</text>
      </g>

      <g>
        <rect x="188" y="390" width="336" height="54" rx="14" fill="white" fill-opacity="0.06"/>
        <rect x="208" y="406" width="24" height="24" rx="7" fill="#A78BFA"/>
        <text x="250" y="422" fill="#E5E7EB" font-family="Inter, Arial, sans-serif" font-size="16" font-weight="700">Client Acme</text>
        <text x="250" y="436" fill="#A8B3C7" font-family="Inter, Arial, sans-serif" font-size="11" font-weight="600">focus on · hide dock</text>
        <rect x="468" y="408" width="30" height="20" rx="6" fill="white" fill-opacity="0.08"/>
        <text x="478" y="422" fill="#CBD5E1" font-family="Inter, Arial, sans-serif" font-size="12" font-weight="800">2</text>
      </g>

      <g>
        <rect x="188" y="456" width="336" height="54" rx="14" fill="white" fill-opacity="0.06"/>
        <rect x="208" y="472" width="24" height="24" rx="7" fill="#F59E0B"/>
        <text x="250" y="488" fill="#E5E7EB" font-family="Inter, Arial, sans-serif" font-size="16" font-weight="700">Side Project</text>
        <text x="250" y="502" fill="#A8B3C7" font-family="Inter, Arial, sans-serif" font-size="11" font-weight="600">open folder · launch apps</text>
        <rect x="468" y="474" width="30" height="20" rx="6" fill="white" fill-opacity="0.08"/>
        <text x="478" y="488" fill="#CBD5E1" font-family="Inter, Arial, sans-serif" font-size="12" font-weight="800">3</text>
      </g>

      <g>
        <rect x="600" y="222" width="72" height="72" rx="20" fill="url(#teal)"/>
        <path d="M619 256C631 238 646 238 658 256" stroke="white" stroke-width="5" stroke-linecap="round"/>
        <path d="M619 268C631 250 646 250 658 268" stroke="white" stroke-width="5" stroke-linecap="round" opacity="0.75"/>
        <text x="600" y="328" fill="#FFFFFF" font-family="Inter, Arial, sans-serif" font-size="24" font-weight="800">Work</text>
        <text x="600" y="350" fill="#A8B3C7" font-family="Inter, Arial, sans-serif" font-size="13" font-weight="600">Desktop 1 · currently here</text>
      </g>

      <g>
        <text x="600" y="390" fill="#94A3B8" font-family="Inter, Arial, sans-serif" font-size="11" font-weight="800">AUTOMATIONS ON ENTER</text>
        <rect x="600" y="408" width="74" height="28" rx="9" fill="#22D3EE" fill-opacity="0.16"/>
        <text x="616" y="426" fill="#CFFAFE" font-family="Inter, Arial, sans-serif" font-size="12" font-weight="700">Focus</text>
        <rect x="686" y="408" width="62" height="28" rx="9" fill="#A78BFA" fill-opacity="0.16"/>
        <text x="702" y="426" fill="#DDD6FE" font-family="Inter, Arial, sans-serif" font-size="12" font-weight="700">Dock</text>
        <rect x="600" y="446" width="62" height="28" rx="9" fill="#F59E0B" fill-opacity="0.16"/>
        <text x="616" y="464" fill="#FDE68A" font-family="Inter, Arial, sans-serif" font-size="12" font-weight="700">Apps</text>
        <rect x="674" y="446" width="84" height="28" rx="9" fill="#34D399" fill-opacity="0.14"/>
        <text x="690" y="464" fill="#BBF7D0" font-family="Inter, Arial, sans-serif" font-size="12" font-weight="700">Project</text>
      </g>
    </g>
  </g>
</svg>
