<svg width="960" height="640" viewBox="0 0 960 640" fill="none" xmlns="http://www.w3.org/2000/svg">
  <rect width="960" height="640" rx="28" fill="#F4F6FB"/>
  <rect x="96" y="86" width="768" height="468" rx="26" fill="#11181C"/>
  <rect x="128" y="122" width="704" height="410" rx="20" fill="#172024"/>
  <rect x="128" y="122" width="704" height="56" rx="20" fill="#212B31"/>
  <circle cx="166" cy="150" r="8" fill="#0D8289"/>
  <circle cx="194" cy="150" r="8" fill="#E7C86D"/>
  <circle cx="222" cy="150" r="8" fill="#69D7DC"/>
  <rect x="176" y="232" width="142" height="170" rx="18" fill="#25323A"/>
  <rect x="198" y="258" width="70" height="70" rx="16" fill="#69D7DC" fill-opacity="0.78"/>
  <rect x="198" y="344" width="86" height="16" rx="8" fill="#F8F7F1" fill-opacity="0.22"/>
  <rect x="198" y="376" width="62" height="16" rx="8" fill="#F8F7F1" fill-opacity="0.14"/>
  <rect x="372" y="232" width="410" height="40" rx="20" fill="#F8F7F1" fill-opacity="0.2"/>
  <rect x="372" y="302" width="306" height="22" rx="11" fill="#F8F7F1" fill-opacity="0.14"/>
  <rect x="372" y="348" width="348" height="22" rx="11" fill="#F8F7F1" fill-opacity="0.14"/>
  <rect x="372" y="420" width="116" height="70" rx="14" fill="#69D7DC" fill-opacity="0.66"/>
  <rect x="516" y="420" width="116" height="70" rx="14" fill="#E7C86D" fill-opacity="0.62"/>
  <rect x="660" y="420" width="116" height="70" rx="14" fill="#A8C4AE" fill-opacity="0.62"/>
  <path d="M740 90C789 121 830 165 862 222" stroke="#69D7DC" stroke-opacity="0.28" stroke-width="2"/>
  <path d="M100 508C196 458 295 450 396 484C489 515 577 518 660 491C728 469 793 471 856 497" stroke="#F8F7F1" stroke-opacity="0.14" stroke-width="3"/>
</svg>
